<?xml version="1.0" standalone="no"?>
<!DOCTYPE svg PUBLIC "-//W3C//DTD SVG 20010904//EN"
 "http://www.w3.org/TR/2001/REC-SVG-20010904/DTD/svg10.dtd">
<svg version="1.0" xmlns="http://www.w3.org/2000/svg"
 width="512.000000pt" height="512.000000pt" viewBox="0 0 512.000000 512.000000"
 preserveAspectRatio="xMidYMid meet">
<metadata>
Created by potrace 1.16, written by Peter Selinger 2001-2019
</metadata>
<g transform="translate(0.000000,512.000000) scale(0.100000,-0.100000)"
fill="#000000" stroke="none">
<path d="M2256 4604 c-142 -22 -273 -61 -386 -116 -93 -45 -115 -61 -195 -142
-165 -168 -238 -341 -252 -596 l-6 -105 -40 -45 c-66 -75 -71 -95 -62 -255 13
-239 15 -220 -33 -263 -59 -52 -72 -97 -72 -247 0 -139 21 -278 50 -335 11
-22 20 -54 20 -73 0 -94 63 -182 141 -195 l44 -7 7 -70 c3 -39 7 -207 8 -375
1 -277 -1 -322 -25 -485 -14 -99 -25 -181 -25 -182 0 -2 -22 -28 -50 -58 -33
-36 -50 -64 -50 -81 0 -31 95 -130 134 -140 37 -9 85 31 123 103 39 73 53 138
60 283 6 112 5 117 -31 227 -40 124 -43 154 -21 173 13 11 18 5 36 -35 12 -27
25 -80 29 -119 l7 -71 2 65 1 65 38 -38 37 -37 0 -155 c0 -163 -3 -174 -46
-175 -12 0 -18 13 -23 51 -4 28 -8 50 -10 48 -1 -2 1 -96 5 -209 6 -179 22
-320 35 -307 2 2 -1 26 -6 53 -16 76 -25 354 -12 354 38 0 42 -11 43 -109 1
-53 3 -88 6 -78 5 20 19 22 26 4 2 -6 25 -39 50 -72 30 -40 52 -84 67 -133 12
-41 23 -72 24 -70 2 1 -9 54 -25 117 -16 63 -32 138 -35 168 -7 53 -7 53 20
53 25 0 27 -2 21 -30 -4 -17 -2 -36 3 -43 5 -7 18 -41 28 -76 10 -36 19 -61
21 -55 2 5 -8 45 -22 89 -13 43 -22 81 -20 83 3 3 15 -34 72 -218 4 -13 5 -13
14 0 8 12 9 10 5 -6 -5 -15 7 -35 48 -80 30 -32 55 -54 56 -48 0 6 -7 17 -15
24 -23 19 -18 37 15 57 35 20 36 33 18 161 -12 79 -11 85 7 98 40 29 73 10 40
-23 -17 -17 -16 -46 12 -188 15 -79 26 -105 46 -105 11 0 6 35 -22 160 -24
108 -26 75 -2 -47 10 -51 14 -93 9 -93 -4 0 -8 2 -8 5 0 3 -7 47 -15 99 -10
63 -12 106 -7 132 8 36 10 37 15 14 8 -30 65 -274 73 -309 3 -15 8 -20 12 -14
5 8 22 7 62 -3 62 -17 252 -16 269 1 8 8 -27 11 -112 10 -155 0 -195 8 -208
42 -5 14 -8 28 -5 30 2 2 28 -3 57 -11 57 -17 182 -21 241 -7 31 7 38 6 43 -8
5 -16 -1 -60 -9 -68 -9 -9 -171 -24 -196 -18 -18 5 -22 3 -14 -5 12 -12 158
-15 230 -4 24 3 44 7 44 8 0 29 47 245 68 311 l28 90 34 0 c31 0 35 -3 32 -25
-1 -14 -11 -41 -21 -61 -17 -31 -41 -154 -54 -265 -3 -30 -2 -31 25 -23 65 18
112 62 152 140 42 86 49 138 20 170 -39 43 -90 -2 -101 -89 -3 -28 -10 -52
-16 -52 -10 0 -4 48 16 114 20 68 88 85 124 29 l16 -24 19 29 c10 16 32 81 48
143 35 133 34 126 -15 -171 -46 -276 -50 -315 -25 -225 11 39 29 142 40 230
12 88 30 200 42 249 l20 88 31 -6 c54 -11 74 -47 44 -78 -8 -7 -17 -26 -21
-41 -3 -15 -13 -27 -22 -27 -11 0 -14 -6 -10 -16 7 -18 -32 -202 -70 -329 -36
-121 -39 -140 -13 -76 12 30 41 131 64 225 33 130 47 172 60 174 13 3 15 -1
10 -19 -15 -47 -10 -222 8 -276 28 -80 33 -81 132 -33 88 43 109 61 84 68 -8
3 -35 26 -61 52 -65 67 -72 106 -59 341 l9 184 -2 -179 c-2 -98 1 -199 6 -224
8 -45 35 -98 45 -89 2 3 -3 17 -13 31 -9 15 -14 29 -10 33 3 3 6 2 6 -4 0 -5
15 -30 32 -54 18 -24 33 -48 33 -54 0 -5 12 -16 27 -24 25 -14 29 -14 54 5 52
38 52 47 1 103 -51 58 -64 99 -92 309 -15 115 -19 410 -6 547 3 39 6 -58 6
-215 0 -282 11 -414 46 -543 10 -37 81 -127 100 -127 20 0 7 56 -26 108 -60
98 -91 332 -79 591 l7 144 61 70 c120 136 157 183 210 262 231 345 369 743
391 1127 4 62 13 127 20 143 8 17 21 73 30 125 8 52 25 126 36 165 28 94 22
157 -24 264 -77 177 -223 358 -402 501 -83 66 -253 180 -268 180 -5 0 33 -28
84 -61 312 -205 511 -434 598 -687 26 -77 26 -97 1 -187 -11 -39 -29 -119 -39
-179 -11 -59 -22 -110 -24 -112 -2 -3 -11 43 -20 100 -9 58 -32 152 -51 210
l-34 106 34 21 c19 11 34 23 34 25 0 3 -19 2 -42 -1 l-43 -6 -30 58 c-118 229
-300 438 -497 571 -78 53 -239 142 -254 142 -5 -1 5 -8 21 -16 323 -170 523
-359 694 -659 28 -49 51 -92 51 -95 0 -4 -26 -14 -58 -24 -32 -9 -74 -27 -93
-39 -31 -19 -32 -22 -13 -25 18 -3 93 13 166 34 14 4 23 -15 52 -103 48 -151
60 -245 53 -432 -6 -158 -20 -262 -58 -406 -80 -311 -239 -634 -426 -865 -69
-85 -153 -169 -153 -154 0 68 35 356 50 410 11 38 20 75 20 80 0 5 -31 18 -70
29 -38 11 -70 22 -69 25 1 3 24 25 52 50 50 44 50 44 24 9 -15 -20 -27 -38
-27 -41 0 -10 62 -28 97 -28 74 0 109 37 137 146 8 32 24 86 36 118 36 101 53
344 29 429 -6 24 -28 55 -56 82 l-45 44 7 61 c6 51 12 64 36 82 26 20 29 28
29 78 l0 57 -47 26 c-27 14 -64 28 -84 32 -35 7 -37 6 -42 -27 -3 -18 -12
-129 -18 -245 l-13 -213 -40 -2 c-37 -1 -38 -2 -8 -5 17 -2 32 -10 32 -16 -1
-16 -57 -83 -64 -77 -12 13 -47 356 -41 404 11 77 42 171 65 191 30 27 143 17
205 -19 26 -15 49 -25 52 -22 7 6 -70 347 -99 436 -85 269 -291 505 -558 640
-103 52 -236 98 -338 115 -105 18 -325 18 -446 -1z m424 -48 c349 -63 667
-301 810 -607 51 -109 63 -179 56 -303 -9 -156 -9 -156 -61 -156 -37 0 -47 -5
-83 -44 -91 -99 -129 -249 -87 -349 8 -20 15 -59 15 -88 0 -28 6 -77 14 -108
8 -31 20 -98 26 -150 16 -140 43 -190 101 -191 23 0 26 -4 21 -25 -6 -35 -14
-37 -49 -15 -42 25 -71 91 -83 186 -15 121 -30 186 -50 221 -11 19 -15 35 -9
38 14 9 11 18 -21 67 -51 77 -174 129 -300 127 l-65 -2 82 -8 c136 -15 233
-61 269 -130 17 -34 12 -49 -17 -49 -15 0 -18 5 -14 23 9 34 -33 79 -97 107
-62 27 -215 43 -226 24 -4 -6 -33 -19 -64 -28 -66 -19 -134 -67 -162 -115 -14
-25 -20 -52 -19 -97 1 -85 31 -139 95 -172 44 -23 58 -24 179 -23 143 2 170
10 209 58 19 24 20 25 8 3 -8 -14 -29 -35 -46 -46 -36 -25 -32 -34 14 -34 55
0 82 19 110 77 23 46 26 63 21 116 -3 34 -8 70 -12 79 -5 13 -2 15 15 11 33
-9 42 -39 51 -172 5 -69 14 -141 20 -160 14 -40 71 -107 111 -127 l29 -15 -18
-31 c-24 -41 -138 -144 -188 -170 -52 -27 -116 -29 -144 -4 -22 20 -29 80 -11
91 6 4 10 -5 10 -19 0 -60 74 -85 137 -46 49 29 56 51 27 79 -29 28 -31 62 -3
87 15 13 24 16 36 8 30 -19 39 -42 25 -64 -7 -11 -8 -20 -2 -20 5 0 14 9 20
21 12 21 8 30 -38 87 -17 22 -19 22 -32 7 -20 -24 -59 -41 -109 -49 -57 -9
-78 -21 -101 -59 -39 -63 -22 -121 40 -146 14 -5 18 -10 10 -10 -8 -1 -32 8
-52 18 -34 19 -37 19 -51 3 -47 -52 -75 -190 -47 -232 12 -17 28 -1 84 80 27
40 99 100 118 100 6 0 -15 -20 -46 -45 -31 -25 -67 -65 -80 -88 -25 -41 -25
-44 -11 -97 17 -63 20 -187 5 -225 -6 -15 -24 -32 -45 -41 -29 -12 -35 -19
-30 -34 4 -12 -3 -33 -19 -57 -14 -21 -26 -48 -26 -60 0 -39 30 -26 51 21 10
24 39 66 63 92 51 58 64 82 110 205 37 98 50 154 61 252 5 43 10 57 20 53 7
-2 16 1 19 9 7 20 66 49 66 33 0 -22 -38 -76 -57 -82 -16 -5 -21 -24 -32 -107
-14 -116 -52 -257 -83 -309 -12 -19 -42 -60 -68 -90 -103 -122 -120 -161 -86
-189 24 -20 65 9 171 126 55 59 90 100 79 90 -23 -19 -39 -23 -28 -5 4 6 8 25
10 42 1 17 7 32 13 34 21 7 48 77 65 167 25 132 34 170 67 279 37 121 49 121
15 0 -31 -110 -42 -179 -56 -364 -17 -214 -45 -263 -203 -349 -50 -28 -102
-70 -172 -141 -79 -79 -111 -105 -153 -120 -67 -25 -142 -26 -190 -1 -48 24
-173 45 -229 37 -52 -7 -81 -25 -112 -68 -20 -28 -17 -26 17 9 33 33 52 43 88
49 64 9 180 -12 232 -42 36 -22 43 -30 39 -50 -5 -29 -7 -29 40 -4 21 10 62
25 91 33 29 7 49 17 45 22 -5 4 -2 5 5 1 7 -5 28 -5 46 -2 26 5 54 30 133 119
86 97 205 199 217 186 2 -2 -64 -74 -148 -160 -145 -149 -154 -157 -231 -188
-44 -18 -109 -46 -145 -63 -56 -26 -80 -31 -175 -35 -137 -7 -297 10 -361 38
-74 31 -145 90 -215 176 -62 77 -180 215 -242 282 -17 19 -24 31 -17 26 8 -5
-2 8 -23 28 -20 21 -37 43 -37 50 0 7 9 1 20 -13 l20 -25 -15 37 c-20 50 -19
77 6 140 21 52 21 54 4 176 -9 68 -14 126 -11 129 3 4 6 -5 7 -18 0 -13 7 -46
15 -74 13 -49 13 -49 8 45 -3 52 -3 93 0 89 3 -3 15 -66 27 -140 12 -73 30
-158 41 -187 19 -51 95 -159 105 -149 2 3 -14 51 -36 107 -23 56 -41 111 -41
121 0 11 -9 45 -19 77 -10 31 -21 89 -24 127 -6 65 -5 63 12 -30 19 -105 28
-128 69 -182 13 -18 39 -77 57 -130 39 -116 101 -253 114 -253 5 0 14 14 20
30 13 39 36 38 78 -2 34 -33 44 -28 18 9 -9 12 -32 25 -51 29 -29 5 -39 14
-50 40 -8 18 -11 40 -8 49 6 14 11 13 33 -9 15 -15 52 -35 82 -45 75 -26 273
-42 431 -35 125 6 154 11 287 48 63 18 124 57 139 91 7 14 18 25 27 25 21 0
42 38 49 90 6 42 -8 188 -19 199 -3 2 -14 -4 -25 -14 -13 -12 -24 -15 -30 -9
-15 15 -26 95 -20 141 7 47 11 45 -92 59 -53 7 -82 33 -93 81 -10 51 4 101 41
137 l33 32 -24 36 c-14 20 -63 62 -110 92 -88 58 -105 78 -105 119 0 42 23 51
67 28 43 -22 82 -50 70 -51 -4 0 -25 12 -47 26 -42 28 -73 29 -78 1 -6 -30 21
-59 111 -120 l86 -58 146 -25 c176 -29 217 -30 273 -4 48 22 73 65 71 122 -1
30 -2 29 -10 -11 -10 -53 -23 -69 -74 -92 -47 -22 -66 -23 -133 -9 -35 8 -61
23 -95 54 -28 27 -74 55 -124 76 -79 33 -119 56 -161 94 -13 11 -42 28 -65 36
-52 19 -70 50 -63 110 5 43 5 44 -9 20 -16 -28 -11 -72 12 -108 8 -13 12 -26
9 -29 -3 -4 -15 16 -27 42 -16 35 -20 59 -16 90 7 50 -10 72 -66 85 -78 17
-129 -19 -147 -103 -11 -51 -75 -178 -88 -175 -4 1 -28 -19 -55 -45 -38 -38
-43 -47 -27 -47 12 0 30 15 46 40 15 22 29 38 32 35 3 -2 -7 -20 -22 -39 -14
-19 -26 -42 -26 -51 0 -44 -52 -104 -113 -130 -20 -8 -37 -18 -37 -20 0 -3 12
-29 27 -58 22 -42 27 -66 27 -122 0 -130 -39 -204 -119 -224 l-45 -11 1 -53 0
-52 22 43 c28 56 41 54 13 -3 -11 -24 -25 -43 -31 -41 -5 1 -11 28 -13 59 -2
36 -7 57 -15 57 -7 0 -32 30 -57 67 -24 36 -62 79 -84 94 -24 18 -33 29 -22
29 30 0 62 -29 117 -105 29 -41 57 -75 62 -75 5 0 7 34 5 75 -3 71 -5 77 -40
112 l-37 36 -56 -13 c-74 -18 -184 -3 -259 35 -51 26 -55 26 -79 11 -39 -26
-75 -12 -98 38 -10 22 -25 50 -34 62 -14 19 -13 22 10 44 21 20 25 21 25 6 0
-9 -9 -20 -21 -24 l-20 -8 21 -19 c18 -16 24 -17 41 -7 10 7 19 8 19 3 0 -6
-8 -14 -17 -20 -14 -8 -16 -15 -8 -38 12 -32 49 -42 78 -21 17 12 16 15 -8 48
-27 37 -65 129 -65 159 0 23 23 43 64 56 18 6 36 22 44 37 7 16 19 114 28 224
15 206 25 267 49 315 26 50 13 221 -22 283 -9 16 -14 13 -53 -33 -57 -68 -63
-58 -8 15 23 31 47 62 52 69 5 7 -5 48 -29 111 -33 86 -38 109 -37 179 1 44 6
94 11 110 8 22 9 5 5 -65 -6 -91 -4 -100 32 -210 21 -63 39 -126 40 -140 1
-14 9 -49 18 -79 9 -30 16 -82 17 -115 1 -55 2 -58 10 -26 14 58 -1 137 -53
295 -52 156 -65 230 -51 304 l8 44 42 -89 c45 -95 74 -196 104 -359 18 -93 18
-95 13 -30 -10 119 -66 320 -118 424 -57 112 -57 118 14 258 108 215 254 334
505 412 55 17 136 37 180 45 102 18 338 19 435 2z m-1265 -980 c-17 -55 -33
-86 -45 -86 -5 0 -12 -20 -16 -45 -3 -25 -9 -44 -11 -41 -11 11 11 89 33 115
13 16 24 34 24 39 0 14 18 62 24 62 2 0 -2 -20 -9 -44z m-44 -315 c12 -81 49
-202 82 -266 18 -36 21 -38 29 -20 6 15 7 13 3 -10 -5 -29 -5 -29 11 -10 16
20 16 19 9 -5 -4 -14 -10 -59 -14 -100 l-8 -75 -1 63 c-2 49 -10 83 -37 143
-50 115 -84 241 -89 333 -3 45 -3 68 0 51 2 -16 9 -64 15 -104z m2175 -192
c-14 -35 -25 -59 -26 -52 0 15 42 124 47 120 2 -2 -8 -33 -21 -68z m-485 -26
c55 -29 119 -99 119 -131 -1 -9 -10 1 -20 22 -26 52 -47 74 -92 97 -92 47
-195 32 -265 -38 -24 -24 -39 -34 -33 -23 14 27 73 72 112 87 58 20 120 15
179 -14z m-1710 -61 c31 -85 79 -272 79 -313 0 -30 -7 -41 -40 -68 -43 -35
-49 -56 -25 -101 9 -17 13 -30 11 -30 -11 0 -36 60 -36 83 0 14 7 30 15 37 8
7 12 16 9 21 -2 5 2 21 11 36 15 26 15 18 -2 -24 -5 -14 0 -12 20 6 15 14 27
31 27 38 0 26 -63 238 -86 290 -12 29 -30 56 -39 59 -12 5 -13 10 -5 20 19 22
38 5 61 -54z m67 -118 c16 -54 33 -108 37 -119 6 -15 5 -17 -4 -9 -6 5 -31 68
-55 140 -24 71 -47 138 -51 149 -4 11 4 2 19 -21 14 -22 38 -85 54 -140z
m2230 154 c-32 -27 -58 -78 -97 -192 -43 -125 -66 -174 -55 -121 7 38 63 213
77 240 20 41 59 85 74 85 15 0 15 -1 1 -12z m-655 -5 c-7 -2 -21 -2 -30 0 -10
3 -4 5 12 5 17 0 24 -2 18 -5z m-66 -14 c-10 -6 -27 -25 -38 -42 -10 -18 -19
-27 -19 -20 0 16 49 73 63 73 7 0 4 -5 -6 -11z m123 -14 c13 -14 22 -26 19
-28 -2 -1 -16 10 -31 25 -15 15 -23 28 -19 28 4 0 18 -11 31 -25z m-1735 -34
c13 -27 33 -82 44 -121 11 -40 23 -82 27 -93 13 -45 -23 7 -46 67 -37 92 -91
145 -103 99 -3 -11 -5 -7 -6 10 -2 41 25 86 51 87 4 0 19 -22 33 -49z m2375
30 c14 -27 13 -30 -9 -24 -27 7 -62 -45 -106 -157 -24 -60 -39 -118 -42 -157
-5 -60 -4 -62 21 -69 14 -3 26 -12 26 -20 0 -19 -13 -17 -40 6 -38 33 -38 92
0 206 64 194 119 272 150 215z m-1190 -36 c34 -17 37 -31 15 -55 -24 -26 -34
-145 -19 -210 7 -30 13 -66 13 -80 l0 -25 -13 25 c-8 14 -12 28 -10 32 3 4 -5
12 -17 19 -21 11 -22 15 -16 140 3 77 2 129 -4 129 -5 0 -9 -56 -9 -128 0 -89
-4 -132 -12 -141 -11 -11 -9 -12 7 -7 11 3 27 1 35 -4 11 -7 3 -10 -28 -10
-37 0 -45 -4 -62 -32 -20 -33 -38 -105 -42 -170 -2 -20 -7 -36 -11 -35 -5 1
-21 -20 -35 -48 -52 -96 -29 -193 50 -210 57 -13 100 45 68 95 -5 9 -5 19 1
26 5 7 14 54 20 105 5 52 12 99 14 104 2 6 4 -60 5 -145 2 -162 0 -404 -3
-406 -1 -1 -29 -4 -62 -7 -33 -3 -50 -3 -37 0 38 8 24 23 -20 23 -63 0 -77
-14 -29 -29 46 -13 55 -37 49 -126 -3 -45 -5 -50 -29 -53 -14 -2 -31 4 -38 12
-10 12 -17 13 -31 4 -35 -22 -50 -4 -50 64 0 35 5 70 10 78 9 13 13 12 30 -9
11 -13 20 -33 20 -44 0 -32 17 -7 23 35 5 34 4 37 -24 43 -16 4 -49 6 -72 5
-77 -5 -76 -5 -80 58 -4 54 -4 54 -3 -9 1 -50 -2 -65 -12 -62 -7 3 -19 0 -26
-6 -10 -8 -16 -9 -21 -1 -3 5 -17 8 -31 6 -23 -4 -24 -2 -22 42 l1 47 5 -40 6
-40 6 40 7 40 2 -40 1 -40 20 30 c11 17 20 42 20 57 0 36 45 88 76 88 13 0 24
5 24 10 0 6 -14 10 -30 10 -33 0 -70 -32 -96 -82 -8 -16 -19 -28 -25 -28 -15
0 3 28 49 78 29 32 46 42 70 42 30 0 31 1 36 58 11 111 28 176 67 262 43 96
46 115 25 183 -14 46 -14 46 25 108 42 69 53 93 69 156 19 73 83 103 150 68z
m257 -57 c-2 -13 -4 -5 -4 17 -1 22 1 32 4 23 2 -10 2 -28 0 -40z m320 0 c-2
-13 -4 -5 -4 17 -1 22 1 32 4 23 2 -10 2 -28 0 -40z m627 -2 c5 -25 5 -51 -3
-76 -6 -20 -11 -73 -12 -116 -1 -85 -16 -162 -18 -93 -1 20 -8 56 -16 79 -8
23 -15 57 -15 75 0 37 20 61 37 44 7 -7 12 -3 17 16 9 37 -3 95 -20 95 -17 0
-54 -57 -54 -84 0 -11 -3 -17 -6 -13 -19 18 45 122 70 114 6 -2 15 -21 20 -41z
m-837 2 c-3 -7 -5 -2 -5 12 0 14 2 19 5 13 2 -7 2 -19 0 -25z m-1562 -50 c26
-56 31 -78 16 -78 -4 0 -11 -30 -15 -67 -8 -87 -23 -164 -26 -138 -2 11 -2 31
-1 45 2 14 -1 54 -5 90 -8 64 -8 64 -15 25 -5 -30 -6 -20 -7 45 -3 142 13 164
53 78z m1882 -10 c-2 -13 -4 -3 -4 22 0 25 2 35 4 23 2 -13 2 -33 0 -45z
m-293 7 l17 -30 -20 24 c-12 13 -21 28 -21 34 0 12 0 11 24 -28z m-110 -10
l17 -30 -20 24 c-12 13 -21 28 -21 34 0 12 0 11 24 -28z m-257 -7 c-3 -7 -5
-2 -5 12 0 14 2 19 5 13 2 -7 2 -19 0 -25z m920 -13 c-8 -21 -16 -34 -19 -29
-7 10 20 80 27 72 3 -3 -1 -22 -8 -43z m-387 31 c0 -2 -8 -10 -17 -17 -16 -13
-17 -12 -4 4 13 16 21 21 21 13z m46 -51 c-36 -47 -43 -45 -8 4 15 21 29 37
31 35 2 -2 -8 -19 -23 -39z m-118 8 c-10 -2 -26 -2 -35 0 -10 3 -2 5 17 5 19
0 27 -2 18 -5z m646 -158 c12 -66 14 -98 6 -120 l-10 -30 4 35 c2 19 -2 59 -9
90 -7 30 -15 87 -18 125 -7 78 -1 57 27 -100z m-1081 -13 c14 -31 44 -100 68
-152 40 -88 43 -103 47 -195 5 -134 -3 -146 -110 -153 l-77 -5 -5 -71 c-4 -39
-8 -89 -10 -111 -2 -22 -3 16 -4 85 l0 125 56 -3 c32 -2 69 1 84 7 36 13 52
69 37 126 -12 42 -37 96 -49 105 -19 13 -66 190 -57 213 3 8 -1 38 -9 67 -8
30 -13 73 -13 95 1 36 2 34 10 -18 5 -31 19 -83 32 -115z m278 151 c13 -16 12
-17 -3 -4 -10 7 -18 15 -18 17 0 8 8 3 21 -13z m215 -38 c-11 -8 -25 -15 -30
-15 -6 1 0 7 14 15 32 19 40 18 16 0z m412 -134 c15 -13 20 -20 12 -16 -43 22
-50 37 -48 104 l2 66 3 -65 c3 -56 7 -68 31 -89z m-475 112 c-7 -2 -21 -2 -30
0 -10 3 -4 5 12 5 17 0 24 -2 18 -5z m-1716 -90 c-3 -10 -5 -2 -5 17 0 19 2
27 5 18 2 -10 2 -26 0 -35z m1150 -135 c-2 -24 -4 -5 -4 42 0 47 2 66 4 43 2
-24 2 -62 0 -85z m-977 108 c0 -2 -7 -7 -16 -10 -8 -3 -12 -2 -9 4 6 10 25 14
25 6z m1017 -88 c-2 -18 -4 -6 -4 27 0 33 2 48 4 33 2 -15 2 -42 0 -60z m60
40 c-3 -8 -6 -5 -6 6 -1 11 2 17 5 13 3 -3 4 -12 1 -19z m1069 -43 c-10 -15
-26 -25 -40 -25 -18 0 -25 -8 -35 -40 -6 -22 -16 -40 -21 -40 -5 0 -4 15 4 33
8 17 18 46 23 62 7 24 15 31 43 35 45 7 46 6 26 -25z m-2282 9 c3 -8 2 -12 -4
-9 -6 3 -10 10 -10 16 0 14 7 11 14 -7z m1223 -16 c-3 -7 -5 -2 -5 12 0 14 2
19 5 13 2 -7 2 -19 0 -25z m17 -53 c5 -22 4 -26 -4 -15 -5 8 -10 24 -10 34 0
26 6 18 14 -19z m-77 -7 c-3 -7 -5 -2 -5 12 0 14 2 19 5 13 2 -7 2 -19 0 -25z
m1120 0 c-3 -7 -5 -2 -5 12 0 14 2 19 5 13 2 -7 2 -19 0 -25z m-2212 -27 c-14
-13 -16 -13 -11 -1 3 8 9 24 13 35 7 19 7 19 11 1 2 -10 -4 -26 -13 -35z
m2188 -19 c10 -2 27 4 38 14 10 9 19 12 19 6 0 -6 -9 -17 -20 -25 -11 -8 -17
-17 -14 -20 4 -3 -6 -9 -21 -13 -30 -7 -56 3 -64 27 -3 9 1 8 13 -4 10 -9 27
-17 39 -17 20 1 20 2 -5 16 -20 10 -28 22 -28 42 l0 27 13 -25 c7 -14 21 -26
30 -28z m-1156 6 c-3 -7 -5 -2 -5 12 0 14 2 19 5 13 2 -7 2 -19 0 -25z m70
-40 c-2 -13 -4 -5 -4 17 -1 22 1 32 4 23 2 -10 2 -28 0 -40z m102 -8 c0 -8 -6
0 -14 19 -8 18 -15 36 -15 40 1 13 29 -45 29 -59z m-272 -32 c-3 -8 -6 -5 -6
6 -1 11 2 17 5 13 3 -3 4 -12 1 -19z m280 -10 c-3 -8 -6 -5 -6 6 -1 11 2 17 5
13 3 -3 4 -12 1 -19z m-100 -10 c-3 -8 -6 -5 -6 6 -1 11 2 17 5 13 3 -3 4 -12
1 -19z m-164 -75 c14 -19 44 -16 56 5 9 14 10 14 11 1 0 -27 -25 -52 -46 -45
-24 7 -40 32 -48 76 l-6 35 11 -30 c7 -16 16 -36 22 -42z m260 -1 c-10 -20
-25 -38 -33 -40 -21 -4 -47 18 -55 48 l-8 25 26 -27 c33 -35 53 -28 69 26 7
26 13 34 15 23 3 -9 -4 -34 -14 -55z m-1005 -15 c12 -11 22 -25 22 -31 0 -5
-14 3 -32 20 l-31 29 31 -41 c36 -46 59 -130 69 -260 6 -78 -8 -177 -27 -189
-10 -6 -24 71 -50 270 -34 262 -35 249 18 202z m543 -47 c-9 -22 -10 -20 -10
21 -1 25 2 49 7 53 11 12 14 -47 3 -74z m640 56 c13 -13 39 -40 56 -59 35 -39
59 -40 67 -4 2 14 4 10 3 -8 -3 -52 -37 -45 -93 19 -35 41 -55 56 -73 56 -21
0 -23 2 -11 10 21 14 24 13 51 -14z m-21 -37 c0 -6 -4 -7 -10 -4 -5 3 -10 11
-10 16 0 6 5 7 10 4 6 -3 10 -11 10 -16z m-1080 -20 c0 -25 -26 -35 -46 -18
-14 12 -14 15 6 31 25 20 40 16 40 -13z m1510 -29 c0 -5 -12 -10 -27 -9 l-28
1 25 8 c14 4 26 8 28 9 1 1 2 -3 2 -9z m-393 -24 c21 -8 50 -17 64 -20 34 -7
136 -106 109 -106 -5 0 -17 12 -27 26 -16 25 -17 25 -30 8 -7 -10 -14 -41 -14
-68 l-2 -51 -7 50 c-5 36 -4 54 6 66 8 8 14 21 14 27 0 16 -41 42 -67 42 -23
0 -23 -1 -8 -30 15 -28 22 -161 8 -147 -3 4 -5 31 -4 60 1 32 -4 59 -12 71
-13 17 -14 10 -9 -59 5 -74 4 -78 -14 -70 -10 4 -33 10 -51 13 -31 4 -31 5
-35 67 -4 84 -1 95 27 95 33 0 45 -26 47 -102 l1 -63 6 75 c4 41 10 80 14 86
8 13 -60 38 -89 32 -11 -2 -21 -15 -25 -33 l-7 -30 -1 31 c0 17 2 34 6 37 11
11 60 8 100 -7z m-957 -6 c-20 -13 -43 -13 -35 0 3 6 16 10 28 10 18 0 19 -2
7 -10z m812 -2 c11 -9 17 -36 21 -92 2 -43 9 -81 15 -85 6 -4 -15 -7 -48 -6
-76 0 -101 22 -107 92 -5 58 2 70 53 88 49 18 47 18 66 3z m533 2 c-3 -5 -21
-9 -38 -9 l-32 2 35 7 c19 4 36 8 38 9 2 0 0 -3 -3 -9z m-1335 -30 c-20 -13
-40 -13 -40 0 0 6 12 10 28 10 21 0 24 -2 12 -10z m1323 -7 c-13 -2 -33 -2
-45 0 -13 2 -3 4 22 4 25 0 35 -2 23 -4z m-1313 -24 c0 -5 -11 -9 -25 -9 -33
0 -33 15 0 16 14 1 25 -2 25 -7z m1308 -6 c-10 -2 -28 -2 -40 0 -13 2 -5 4 17
4 22 1 32 -1 23 -4z m-1310 -20 c-10 -2 -26 -2 -35 0 -10 3 -2 5 17 5 19 0 27
-2 18 -5z m1310 -10 c-10 -2 -28 -2 -40 0 -13 2 -5 4 17 4 22 1 32 -1 23 -4z
m-1333 -13 c-3 -5 -10 -10 -16 -10 -5 0 -9 5 -9 10 0 6 7 10 16 10 8 0 12 -4
9 -10z m232 -12 c-3 -8 -6 -5 -6 6 -1 11 2 17 5 13 3 -3 4 -12 1 -19z m812
-55 c0 -13 -3 -23 -9 -23 -6 0 -9 23 -9 53 1 44 2 48 9 22 4 -16 8 -40 9 -52z
m47 -21 c-11 -10 -13 3 -7 48 l6 45 3 -44 c2 -23 1 -46 -2 -49z m34 31 c0 -12
-4 -25 -10 -28 -6 -4 -10 11 -10 37 0 31 3 39 10 28 5 -8 10 -25 10 -37z m205
37 c-3 -5 -17 -10 -31 -10 -14 0 -22 4 -19 10 3 6 17 10 31 10 14 0 22 -4 19
-10z m232 -22 c-3 -7 -5 -2 -5 12 0 14 2 19 5 13 2 -7 2 -19 0 -25z m-1534 15
c-7 -2 -21 -2 -30 0 -10 3 -4 5 12 5 17 0 24 -2 18 -5z m1130 -46 c-2 -79 -3
-87 -10 -87 -5 0 -8 29 -8 65 0 36 4 64 9 62 5 -2 9 -20 9 -40z m-1128 23 c-3
-5 2 -10 12 -11 16 0 16 -1 -2 -9 -28 -12 -37 -12 -30 0 3 6 1 10 -4 10 -6 0
-11 5 -11 10 0 6 9 10 21 10 11 0 17 -4 14 -10z m1295 -6 c0 -2 -12 -4 -26 -4
-14 0 -23 4 -20 9 6 8 46 4 46 -5z m-1166 -19 c3 -8 1 -15 -4 -15 -6 0 -10 7
-10 15 0 8 2 15 4 15 2 0 6 -7 10 -15z m-435 -79 c1 -67 -5 -55 -12 24 -4 40
-2 57 3 45 5 -11 9 -42 9 -69z m1008 44 c8 -15 12 -52 11 -90 l-3 -65 -42 -3
-43 -3 0 80 c0 60 4 84 16 96 22 21 46 16 61 -15z m576 23 c-7 -2 -19 -2 -25
0 -7 3 -2 5 12 5 14 0 19 -2 13 -5z m-690 -10 c3 -5 8 -44 12 -89 8 -90 0
-103 -51 -84 -25 10 -26 13 -22 79 2 38 10 76 17 85 14 17 37 21 44 9z m227
-13 c6 -11 10 -48 8 -83 l-3 -62 -39 -3 -38 -3 4 69 c3 69 18 102 44 102 7 0
18 -9 24 -20z m93 -48 c10 -75 6 -92 -27 -92 -28 0 -36 16 -36 70 0 55 16 92
38 88 13 -2 19 -18 25 -66z m614 -29 c-2 -21 -4 -6 -4 32 0 39 2 55 4 38 2
-18 2 -50 0 -70z m-1417 37 c0 -20 -2 -22 -10 -10 -5 8 -10 26 -10 40 0 20 2
22 10 10 5 -8 10 -26 10 -40z m234 13 c3 -21 6 -55 6 -75 0 -31 -4 -38 -20
-38 -18 0 -20 7 -20 59 0 92 22 126 34 54z m939 30 c-7 -2 -19 -2 -25 0 -7 3
-2 5 12 5 14 0 19 -2 13 -5z m-1143 -54 c0 -24 -4 -38 -10 -34 -5 3 -10 24
-10 46 0 24 4 38 10 34 6 -3 10 -24 10 -46z m110 -10 c0 -44 -3 -60 -12 -57
-26 9 -18 118 8 118 2 0 4 -27 4 -61z m38 -4 c-4 -79 -22 -91 -26 -16 -3 59 2
81 18 81 7 0 10 -23 8 -65z m682 31 c0 -47 -11 -96 -21 -96 -10 0 -12 54 -3
99 9 41 24 40 24 -3z m27 -22 c-5 -51 -12 -74 -20 -63 -8 11 6 119 15 119 7 0
9 -20 5 -56z m-827 -6 c0 -16 -4 -28 -10 -28 -5 0 -10 19 -10 43 0 31 3 38 10
27 5 -8 10 -27 10 -42z m34 30 c9 -35 7 -83 -3 -72 -13 14 -25 94 -13 94 5 0
12 -10 16 -22z m833 -19 c-3 -22 -8 -43 -11 -46 -12 -13 -16 6 -10 46 9 54 28
54 21 0z m34 32 c15 24 10 -13 -5 -41 -14 -24 -14 -24 -13 14 1 21 3 33 5 26
3 -9 6 -9 13 1z m26 -28 c-3 -10 -5 -4 -5 12 0 17 2 24 5 18 2 -7 2 -21 0 -30z
m168 27 c3 -6 -1 -7 -9 -4 -18 7 -21 14 -7 14 6 0 13 -4 16 -10z m302 -22 c-3
-7 -5 -2 -5 12 0 14 2 19 5 13 2 -7 2 -19 0 -25z m-1492 -8 c-3 -5 -14 -10
-23 -10 -15 0 -15 2 -2 10 20 13 33 13 25 0z m1192 4 c-3 -3 -12 -4 -19 -1 -8
3 -5 6 6 6 11 1 17 -2 13 -5z m-113 -44 c-18 -35 -21 -36 -21 -12 0 13 21 39
34 42 1 0 -5 -13 -13 -30z m-1074 10 c0 -5 -5 -10 -11 -10 -5 0 -7 5 -4 10 3
6 8 10 11 10 2 0 4 -4 4 -10z m999 -46 c0 11 4 17 7 13 10 -10 -5 -58 -16 -52
-6 3 -9 23 -9 43 l1 37 8 -30 c5 -18 8 -23 9 -11z m35 21 c-4 -8 -8 -15 -10
-15 -2 0 -4 7 -4 15 0 8 4 15 10 15 5 0 7 -7 4 -15z m-1407 -192 c-2 -38 -3
-7 -3 67 0 74 1 105 3 68 2 -38 2 -98 0 -135z m413 171 c0 -8 -4 -12 -10 -9
-5 3 -10 10 -10 16 0 5 5 9 10 9 6 0 10 -7 10 -16z m30 -13 c13 19 23 5 15
-21 -9 -29 -35 -7 -34 29 2 25 2 26 6 2 4 -18 7 -21 13 -10z m37 -13 c-3 -7
-5 -2 -5 12 0 14 2 19 5 13 2 -7 2 -19 0 -25z m860 -30 c-2 -13 -4 -3 -4 22 0
25 2 35 4 23 2 -13 2 -33 0 -45z m-827 8 c0 -62 -14 -65 -18 -5 -1 29 2 49 8
49 5 0 10 -20 10 -44z m800 -2 c0 -27 4 -43 10 -39 6 3 7 -1 4 -9 -10 -27 -21
-18 -28 22 -8 53 -7 72 4 72 6 0 10 -21 10 -46z m500 -23 c-7 -11 -9 -3 -9 29
1 42 1 43 9 16 6 -17 5 -36 0 -45z m-1398 32 c23 -26 24 -33 18 -88 l-6 -60
-23 49 c-25 54 -39 126 -24 126 5 0 21 -12 35 -27z m134 -24 c-8 -51 0 -50 14
1 12 44 24 50 40 21 13 -25 13 -81 0 -81 -5 0 -10 15 -10 33 -1 30 -2 31 -15
13 -8 -10 -16 -24 -18 -30 -6 -19 -37 14 -37 39 0 33 10 56 22 49 6 -4 8 -23
4 -45z m733 -6 c-1 -57 -1 -58 -10 -18 -11 55 -11 75 1 75 6 0 9 -25 9 -57z
m-39 -8 c0 -67 -16 -73 -22 -7 -5 50 -2 62 13 62 5 0 9 -25 9 -55z m-581 -16
l4 -54 13 60 13 60 -3 -54 c-2 -37 -9 -58 -21 -67 -18 -14 -49 -8 -39 7 3 5
10 7 15 4 5 -4 5 5 -1 20 -14 38 -13 88 3 83 7 -3 14 -27 16 -59z m79 -7 l3
-62 -28 1 c-16 1 -21 3 -11 6 15 4 17 13 11 65 -5 50 -4 60 8 56 10 -3 15 -24
17 -66z m404 20 c-4 -51 4 -67 24 -47 10 9 14 28 12 48 -4 38 16 49 20 11 8
-63 -43 -111 -68 -65 -15 29 -13 104 3 98 8 -2 11 -18 9 -45z m-662 18 c6 -11
8 -20 6 -20 -3 0 -10 9 -16 20 -6 11 -8 20 -6 20 3 0 10 -9 16 -20z m302 -37
c3 -50 6 -58 23 -58 18 0 20 6 17 58 -1 33 2 57 8 57 13 0 22 -40 18 -86 -3
-42 -18 -51 -64 -40 -22 6 -24 11 -24 66 0 77 18 79 22 3z m268 41 c0 -6 -3
-32 -6 -58 -6 -40 -10 -46 -30 -46 -20 0 -24 5 -24 29 0 16 -4 41 -10 55 -7
20 -6 25 8 29 31 7 62 2 62 -9z m42 -34 c-3 -32 0 -50 7 -50 6 0 11 -4 11 -10
0 -5 -9 -10 -20 -10 -17 0 -20 7 -20 53 0 50 5 67 19 67 3 0 4 -22 3 -50z
m-192 -9 c0 -28 5 -53 10 -56 6 -4 10 15 10 49 0 44 3 56 15 56 13 0 15 -11
13 -57 -3 -52 -5 -58 -26 -61 -37 -5 -52 15 -52 69 0 37 4 49 15 49 11 0 15
-12 15 -49z m-305 -31 l20 -9 -20 0 c-11 0 -29 4 -40 9 l-20 9 20 0 c11 0 29
-4 40 -9z m1165 -57 c0 -22 -17 -50 -24 -42 -5 5 15 59 22 59 1 0 2 -8 2 -17z
m-1773 -145 c-2 -18 -4 -4 -4 32 0 36 2 50 4 33 2 -18 2 -48 0 -65z m1758 60
c-5 -26 -52 -187 -80 -276 -3 -9 -15 -6 -45 9 -22 12 -40 25 -40 31 0 29 33
148 44 157 15 13 56 3 56 -14 0 -6 -9 -38 -20 -70 -21 -60 -26 -91 -11 -65 5
8 28 70 51 138 43 122 57 151 45 90z m-1795 -273 c-18 -77 -32 -151 -33 -165
-1 -16 -18 -36 -52 -62 -27 -21 -54 -38 -60 -37 -5 0 1 8 15 17 51 35 89 74
88 90 0 9 13 79 31 155 17 76 32 148 32 160 2 20 2 20 6 2 2 -11 -10 -83 -27
-160z m355 105 c21 -31 25 -44 17 -52 -17 -17 -15 -33 3 -18 8 6 19 9 26 5 15
-10 -8 -25 -37 -25 -12 0 -27 -7 -34 -15 -24 -28 -30 -15 -30 63 0 107 7 112
55 42z m1031 -95 c-11 -8 -25 -15 -30 -15 -6 1 0 7 14 15 32 19 40 18 16 0z
m-969 -81 c-3 -48 -10 -91 -17 -97 -10 -9 -11 -4 -5 23 4 19 8 63 9 98 0 34 5
62 10 62 5 0 6 -38 3 -86z m-31 41 c21 -32 8 -74 -29 -95 -31 -17 -43 -9 -57
39 -8 29 -6 36 17 57 33 30 48 30 69 -1z m1211 -17 c-3 -7 -5 -2 -5 12 0 14 2
19 5 13 2 -7 2 -19 0 -25z m-217 -68 c0 -35 -3 -40 -27 -46 -28 -8 -56 5 -61
27 -2 12 57 55 81 58 4 1 7 -17 7 -39z m-710 -82 c0 -20 -7 -28 -31 -37 -18
-6 -36 -11 -41 -11 -12 0 -34 56 -42 107 l-6 42 59 -37 c49 -30 60 -42 61 -64z
m1027 50 c-3 -7 -5 -2 -5 12 0 14 2 19 5 13 2 -7 2 -19 0 -25z m-1323 -14 c4
-10 2 -13 -7 -8 -9 5 -9 4 1 -7 18 -20 15 -29 -12 -29 -25 0 -43 30 -31 50 10
15 42 12 49 -6z m916 -15 c0 -6 -4 -8 -9 -5 -5 4 -11 1 -13 -4 -2 -6 -11 -4
-23 5 -20 16 -20 16 3 12 12 -3 22 -1 22 5 0 5 5 6 10 3 6 -3 10 -11 10 -16z
m-160 -22 c-61 -30 -71 -32 -175 -31 -85 0 -127 5 -184 23 -40 12 -71 25 -68
28 3 3 30 -3 59 -13 41 -15 83 -19 188 -19 118 0 141 3 180 22 25 12 50 21 55
21 6 0 -19 -14 -55 -31z m240 19 c0 -24 -26 -66 -40 -66 -40 0 -49 10 -38 41
8 24 15 29 44 29 19 0 34 -2 34 -4z m-925 -139 c36 -113 30 -119 -9 -7 -18 52
-36 104 -40 115 -5 13 -2 11 8 -5 9 -14 27 -60 41 -103z m713 57 c-7 -62 -143
-95 -299 -74 -46 6 -90 17 -97 24 -11 11 -4 11 39 0 54 -14 224 -18 267 -6 13
4 -37 7 -110 8 -145 0 -210 15 -216 48 -6 31 10 35 83 20 97 -19 209 -17 270
4 57 20 68 16 63 -24z m-331 -99 c89 -23 227 -19 296 10 14 6 17 2 17 -19 0
-20 -7 -29 -27 -38 -32 -12 -235 -17 -303 -6 l-45 7 35 -16 c26 -12 67 -17
155 -17 103 -1 126 2 162 20 48 24 48 13 0 -14 -26 -14 -57 -17 -157 -17 -157
0 -194 13 -198 69 -2 20 0 36 2 36 3 0 31 -7 63 -15z m490 -17 c-3 -8 -6 -5
-6 6 -1 11 2 17 5 13 3 -3 4 -12 1 -19z m-792 -18 c-3 -6 1 -7 9 -4 9 3 16 2
16 -4 0 -11 -23 -22 -46 -22 -8 0 -14 9 -14 20 0 14 7 20 21 20 11 0 17 -4 14
-10z m782 -22 c-3 -8 -6 -5 -6 6 -1 11 2 17 5 13 3 -3 4 -12 1 -19z m153 13
c0 -15 -37 -23 -62 -14 -20 6 -18 8 17 14 22 3 41 7 43 8 1 0 2 -3 2 -8z
m-163 -53 c-3 -8 -6 -5 -6 6 -1 11 2 17 5 13 3 -3 4 -12 1 -19z m-442 -10 c50
-11 205 -6 238 7 13 6 17 2 17 -18 0 -22 -6 -27 -37 -34 -57 -12 -223 -8 -265
6 -31 10 -38 18 -38 38 0 20 4 24 17 18 10 -3 40 -11 68 -17z m432 -50 c-3 -8
-6 -5 -6 6 -1 11 2 17 5 13 3 -3 4 -12 1 -19z m-157 -2 c-29 -36 -259 -48
-334 -17 -45 18 -25 22 29 5 62 -19 223 -14 275 9 45 20 45 20 30 3z m147 -83
c-3 -10 -5 -2 -5 17 0 19 2 27 5 18 2 -10 2 -26 0 -35z"/>
<path d="M3351 4065 c27 -78 25 -119 -8 -150 -15 -14 -32 -25 -36 -25 -5 0 -7
-6 -4 -14 3 -8 2 -16 -2 -18 -14 -5 -69 -251 -69 -308 0 -8 -4 -26 -8 -39 -6
-19 -4 -22 7 -16 8 5 7 0 -3 -12 -10 -11 -18 -23 -18 -28 0 -10 50 43 51 56 1
5 2 13 3 19 0 5 9 19 20 31 21 25 40 85 31 99 -3 6 -1 10 5 10 6 0 9 4 5 9 -3
5 -1 12 5 16 5 3 10 11 10 16 0 6 -4 7 -10 4 -5 -3 -10 -1 -10 4 0 6 7 11 15
11 14 0 19 14 18 48 -1 6 4 12 11 12 6 0 4 5 -4 10 -13 9 -13 10 0 10 33 0 49
92 29 163 -16 59 -3 55 16 -4 24 -71 22 -95 -14 -176 -58 -133 -115 -405 -109
-523 3 -64 3 -62 17 49 17 150 55 329 81 388 11 26 39 71 61 100 46 62 46 65
-13 166 -23 40 -44 65 -50 61 -6 -4 -8 -3 -4 4 5 9 -29 82 -39 82 -2 0 5 -25
16 -55z m-14 -317 c-3 -8 -6 -5 -6 6 -1 11 2 17 5 13 3 -3 4 -12 1 -19z"/>
<path d="M3296 4061 c-21 -23 -45 -86 -46 -118 0 -12 -4 -23 -8 -25 -5 -1 -27
-37 -51 -78 -59 -105 -101 -164 -134 -186 -15 -11 -31 -30 -34 -44 l-7 -25 -7
25 c-5 19 -7 12 -8 -26 -1 -53 23 -94 55 -94 19 0 87 -35 107 -55 14 -13 17
-12 26 18 6 17 20 88 31 157 21 125 28 159 57 258 11 40 21 56 44 67 33 17 37
42 17 106 -13 44 -18 47 -42 20z"/>
<path d="M3434 3768 c-41 -50 -63 -111 -85 -236 -25 -148 -24 -152 10 -106 17
21 43 55 60 74 17 19 31 41 31 49 0 11 4 10 16 -5 15 -19 16 -19 9 1 -17 47
-16 57 4 95 12 23 21 59 21 84 0 84 -20 97 -66 44z m13 -190 c-3 -8 -6 -5 -6
6 -1 11 2 17 5 13 3 -3 4 -12 1 -19z"/>
<path d="M2980 3740 c0 -5 5 -10 11 -10 5 0 7 5 4 10 -3 6 -8 10 -11 10 -2 0
-4 -4 -4 -10z"/>
<path d="M2983 3615 c0 -27 2 -38 4 -22 2 15 2 37 0 50 -2 12 -4 0 -4 -28z"/>
<path d="M2971 3502 c-2 -51 -27 -99 -58 -116 -16 -8 -70 -26 -119 -40 -49
-14 -132 -42 -184 -62 -128 -49 -184 -46 -325 19 -111 51 -223 81 -360 96
-115 12 -143 25 -166 76 -14 29 -19 34 -19 18 0 -33 47 -81 88 -92 20 -5 69
-12 107 -16 115 -11 233 -43 355 -97 149 -66 190 -67 340 -10 58 22 141 50
186 62 110 29 140 49 154 100 6 23 9 54 7 68 -4 24 -4 23 -6 -6z"/>
<path d="M2711 3275 c-89 -42 -147 -90 -175 -147 -38 -77 -35 -119 13 -171 36
-38 40 -49 43 -101 l3 -59 50 -26 51 -27 -18 36 c-65 131 -6 267 139 319 70
25 86 34 91 49 7 23 -56 12 -125 -23 -49 -25 -88 -54 -131 -100 -33 -36 -65
-65 -71 -65 -24 0 -51 44 -51 84 0 83 75 171 195 227 33 15 56 28 50 28 -5 1
-34 -10 -64 -24z"/>
<path d="M2210 3269 c99 -59 150 -150 130 -234 -5 -22 -7 -41 -5 -44 3 -2 0
-10 -6 -18 -13 -15 -59 -18 -59 -4 0 5 -22 34 -50 64 -70 76 -149 111 -250
110 -91 0 -185 -24 -263 -66 -61 -32 -103 -78 -93 -102 9 -24 25 -17 39 18 8
17 22 39 32 47 17 14 18 14 5 -9 -21 -41 -40 -149 -51 -298 -12 -162 -7 -184
51 -214 19 -11 53 -19 76 -19 39 0 228 45 284 68 42 17 144 99 169 136 13 20
28 33 34 29 5 -3 7 -2 4 4 -3 5 3 32 14 59 11 27 17 37 14 22 -7 -38 2 -35 18
5 8 17 12 49 9 70 -4 33 0 43 29 73 29 30 34 42 32 77 -2 46 -24 106 -55 150
-20 28 -114 97 -133 97 -5 0 6 -9 25 -21z m-166 -226 c53 -26 113 -80 130
-117 35 -74 15 -187 -48 -269 -75 -99 -341 -162 -424 -100 -38 28 -42 76 -7
99 43 28 84 -6 109 -88 7 -23 51 -23 131 -3 135 36 212 107 241 222 l7 27 -24
-23 c-44 -41 -140 -81 -210 -87 -124 -12 -200 47 -197 151 l1 50 6 -55 c8 -70
25 -95 79 -122 79 -38 199 -13 300 61 47 35 54 64 28 124 -20 49 -100 115
-161 132 -46 14 -59 14 -125 0 -131 -28 -172 -77 -181 -220 l-5 -90 -2 84 c-2
102 19 155 76 194 78 54 202 68 276 30z m308 -45 c-8 -8 -9 -4 -5 13 4 13 8
18 11 10 2 -7 -1 -18 -6 -23z m-379 15 c-13 -2 -33 -2 -45 0 -13 2 -3 4 22 4
25 0 35 -2 23 -4z m-73 -6 c0 -2 -12 -14 -27 -28 l-28 -24 24 28 c23 25 31 32
31 24z m-105 -43 c-14 -20 -25 -41 -25 -47 0 -6 -3 -8 -6 -5 -7 7 12 45 34 71
25 28 23 20 -3 -19z m501 -54 c-1 -30 -21 -59 -32 -48 -3 4 -3 25 1 47 8 46
33 47 31 1z m-229 -2 c-3 -7 -5 -2 -5 12 0 14 2 19 5 13 2 -7 2 -19 0 -25z
m-230 -20 c-3 -7 -5 -2 -5 12 0 14 2 19 5 13 2 -7 2 -19 0 -25z m230 -20 c-3
-8 -6 -5 -6 6 -1 11 2 17 5 13 3 -3 4 -12 1 -19z m-17 -38 c-11 -21 -48 -45
-57 -37 -2 3 5 8 16 12 12 3 26 15 31 26 6 10 13 19 16 19 2 0 0 -9 -6 -20z
m-175 -10 c10 -11 16 -20 13 -20 -3 0 -13 9 -23 20 -10 11 -16 20 -13 20 3 0
13 -9 23 -20z m93 -37 c-10 -2 -26 -2 -35 0 -10 3 -2 5 17 5 19 0 27 -2 18 -5z
m-249 -98 c0 -5 -4 -3 -9 5 -5 8 -9 22 -9 30 0 16 17 -16 18 -35z"/>
<path d="M2888 3183 c7 -3 16 -2 19 1 4 3 -2 6 -13 5 -11 0 -14 -3 -6 -6z"/>
<path d="M2586 3137 c-27 -43 -42 -97 -32 -122 10 -26 41 -16 81 26 22 23 62
56 89 74 l48 33 -53 10 c-110 21 -104 22 -133 -21z"/>
<path d="M2293 3138 c-15 -18 -10 -48 14 -84 l18 -28 3 31 c2 17 -3 45 -10 63
-11 27 -15 30 -25 18z"/>
<path d="M2410 3052 c0 -32 5 -41 25 -50 40 -18 45 -15 45 26 0 43 -14 62 -47
62 -20 0 -23 -5 -23 -38z"/>
<path d="M1606 2898 c-3 -29 -6 -111 -6 -181 0 -142 9 -178 56 -217 27 -23 28
-27 17 -50 -13 -26 -17 -82 -7 -93 12 -12 34 6 33 27 0 11 -3 15 -6 9 -2 -7
-9 -13 -14 -13 -6 0 -6 7 -1 18 5 9 7 23 5 30 -3 8 4 16 17 19 13 4 17 8 10
13 -6 4 22 7 62 7 84 0 114 7 122 29 5 12 2 14 -11 9 -35 -14 -150 -18 -186
-6 -20 7 -46 24 -58 39 -21 26 -21 34 -15 182 4 85 11 172 15 193 8 32 6 37
-9 37 -13 0 -19 -12 -24 -52z"/>
<path d="M2964 2669 c47 -5 85 -5 95 1 11 6 -16 9 -79 8 l-95 -1 79 -8z"/>
<path d="M2101 2580 c-13 -11 -55 -30 -95 -41 -39 -12 -79 -31 -89 -42 -18
-21 -18 -21 43 -39 l62 -17 50 25 c28 14 61 37 74 51 27 29 32 63 9 63 -8 0
-15 5 -15 10 0 15 -12 12 -39 -10z"/>
<path d="M2830 2492 c0 -5 10 -18 23 -30 27 -26 103 -30 152 -8 l30 13 -35 7
c-170 29 -170 29 -170 18z"/>
<path d="M1541 2476 c-7 -8 -11 -27 -9 -43 2 -22 9 -29 31 -31 34 -4 57 13 56
42 -1 20 -2 20 -6 1 -7 -30 -19 -38 -47 -31 -16 4 -26 13 -26 25 0 26 25 44
51 36 14 -5 19 -4 15 4 -10 16 -51 14 -65 -3z"/>
<path d="M1874 2452 c-13 -8 -28 -130 -19 -154 3 -8 24 -30 46 -48 l41 -32 32
31 c17 17 46 34 64 37 35 7 38 15 21 65 -17 50 -47 78 -103 94 -56 17 -66 18
-82 7z"/>
<path d="M3005 2439 c-31 -12 -66 -18 -94 -15 -87 8 -131 -30 -131 -114 0 -38
1 -40 20 -30 37 20 150 -30 150 -66 0 -8 3 -14 8 -14 12 0 80 123 87 158 4 19
20 49 37 68 l30 34 -28 -1 c-16 -1 -51 -10 -79 -20z"/>
<path d="M3287 2453 c-11 -10 -8 -41 4 -49 16 -9 43 21 36 40 -7 16 -28 21
-40 9z"/>
<path d="M1742 2433 c-6 -10 -11 -49 -13 -88 l-4 -70 37 -3 c20 -2 47 2 58 8
19 10 21 19 18 88 l-3 77 -42 3 c-32 2 -44 -1 -51 -15z"/>
<path d="M2794 2259 c-11 -19 23 -41 77 -50 58 -9 62 -8 54 13 -14 36 -114 64
-131 37z"/>
<path d="M1980 2230 c-26 -27 -29 -39 -32 -110 -3 -73 -1 -80 16 -80 10 0 36
17 57 39 38 38 50 73 29 86 -8 5 -8 11 0 20 8 10 7 21 -5 44 -19 39 -30 39
-65 1z m40 -90 c0 -5 -5 -10 -11 -10 -5 0 -7 5 -4 10 3 6 8 10 11 10 2 0 4 -4
4 -10z"/>
<path d="M1670 1685 c0 -41 361 -440 408 -452 57 -14 152 47 152 98 0 11 -16
60 -35 109 -20 51 -32 96 -28 106 4 12 3 15 -5 10 -19 -11 -14 -36 24 -130 23
-56 34 -96 30 -111 -8 -31 -58 -66 -105 -72 -35 -5 -42 -1 -99 52 -34 31 -62
60 -62 64 0 4 11 13 25 19 15 7 32 26 39 43 l13 31 6 -30 c7 -35 46 -66 71
-56 23 9 30 49 16 85 -24 56 -90 78 -90 29 0 -11 -7 -20 -15 -20 -9 0 -15 -9
-15 -23 0 -26 -28 -57 -52 -57 -9 0 -32 18 -52 40 -34 38 -36 42 -21 63 8 12
15 28 15 37 0 9 -7 4 -18 -12 -9 -16 -20 -28 -23 -28 -4 0 -45 48 -93 106 -47
58 -86 103 -86 99z"/>
<path d="M2815 1595 c-16 -8 -43 -19 -58 -25 -34 -12 -60 -66 -82 -169 -8 -40
-15 -74 -15 -76 0 -2 8 -1 18 1 22 6 140 -51 121 -59 -9 -4 -10 -6 -2 -6 7 -1
44 29 83 65 73 69 85 98 54 128 -19 19 -18 19 -54 1 -35 -18 -48 -52 -27 -72
30 -30 84 29 57 62 -9 10 -9 15 -1 15 19 0 25 -52 10 -79 -18 -31 -69 -40 -89
-16 -19 22 -15 70 9 110 11 19 24 57 29 85 10 57 3 62 -53 35z"/>
<path d="M2684 1550 c-18 -7 -25 -24 -38 -97 -18 -96 -21 -173 -7 -173 4 0 11
30 14 68 3 37 16 100 30 140 13 39 24 72 23 71 0 0 -11 -4 -22 -9z"/>
<path d="M2246 1539 c6 -10 119 -46 164 -53 19 -3 74 -6 123 -8 52 -1 87 -6
88 -12 1 -6 5 7 10 28 5 21 8 40 7 41 -7 7 -396 10 -392 4z"/>
<path d="M2883 1519 c-12 -30 -11 -32 3 -17 9 8 14 23 12 33 -2 12 -7 7 -15
-16z"/>
<path d="M2042 1203 c28 -31 107 -65 157 -69 l46 -4 -35 11 c-19 6 -53 16 -74
22 -22 6 -56 22 -75 35 -28 19 -32 20 -19 5z"/>
<path d="M2345 1201 c-49 -22 -79 -55 -72 -76 5 -13 33 -15 178 -15 95 0 170
3 166 6 -3 3 -1 18 4 32 6 15 7 23 3 19 -4 -3 -12 0 -18 8 -14 19 -117 45
-176 45 -25 0 -63 -9 -85 -19z"/>
<path d="M2373 2713 c-18 -30 -46 -93 -63 -139 -16 -46 -48 -121 -70 -167 -22
-45 -44 -107 -49 -137 -14 -79 -19 -173 -10 -158 5 7 9 31 9 54 0 73 21 157
57 228 20 39 49 109 64 155 16 45 45 112 65 148 44 79 41 92 -3 16z"/>
<path d="M2230 2085 c-7 -9 -11 -17 -9 -20 3 -2 10 5 17 15 14 24 10 26 -8 5z"/>
<path d="M2311 2024 c-7 -26 -10 -49 -7 -51 3 -3 8 8 11 23 3 16 10 37 16 46
11 22 11 28 0 28 -5 0 -14 -21 -20 -46z"/>
<path d="M2141 1998 c0 -38 2 -68 7 -68 4 0 6 21 4 48 -5 82 -9 89 -11 20z"/>
<path d="M2237 1997 c-5 -32 -6 -61 -3 -64 9 -9 18 42 14 83 -3 36 -4 35 -11
-19z"/>
<path d="M2390 1987 l5 -62 3 54 c2 30 0 58 -5 62 -4 4 -6 -20 -3 -54z"/>
<path d="M2082 2010 c0 -14 2 -19 5 -12 2 6 2 18 0 25 -3 6 -5 1 -5 -13z"/>
<path d="M2073 1945 c0 -22 2 -30 4 -17 2 12 2 30 0 40 -3 9 -5 -1 -4 -23z"/>
<path d="M2196 1933 c-6 -14 -5 -15 5 -6 7 7 10 15 7 18 -3 3 -9 -2 -12 -12z"/>
<path d="M2541 2597 c-1 -4 19 -51 43 -105 25 -53 50 -117 56 -141 13 -51 19
-51 13 1 -4 32 -110 264 -112 245z"/>
<path d="M2717 2064 c-11 -11 -8 -79 4 -111 9 -25 12 -26 20 -10 13 22 7 119
-7 124 -5 2 -13 0 -17 -3z"/>
<path d="M2547 2072 c-28 -31 -18 -121 16 -143 5 -4 23 -2 39 3 29 10 29 11
26 82 l-3 71 -31 3 c-20 2 -36 -3 -47 -16z"/>
<path d="M2560 1649 c0 -24 4 -38 10 -34 6 3 10 22 10 41 0 19 -4 34 -10 34
-5 0 -10 -18 -10 -41z"/>
<path d="M3392 3210 c0 -19 2 -27 5 -17 2 9 2 25 0 35 -3 9 -5 1 -5 -18z"/>
<path d="M3360 843 c0 -13 29 -38 35 -31 3 3 -4 13 -15 23 -11 10 -20 13 -20
8z"/>
<path d="M2163 635 c0 -22 2 -30 4 -17 2 12 2 30 0 40 -3 9 -5 -1 -4 -23z"/>
</g>
</svg>